<svg xmlns="http://www.w3.org/2000/svg" viewBox="0 0 1280 320" width="1280" height="320" role="img" aria-label="k8s-dockerhub-detector"><defs><clipPath id="k"><rect width="1280" height="320" rx="18"/></clipPath></defs><g clip-path="url(#k)"><rect width="1280" height="320" fill="#0A1224"/><rect width="1280" height="320" fill="#0A1224"/><circle cx="760" cy="58" r="24" fill="#F2E6C4"/><circle cx="771" cy="52" r="22" fill="#0A1224"/><rect y="262" width="1280" height="58" fill="#07203A"/><path d="M0 280h1280M40 296h1200M120 310h1040" stroke="#12385E" stroke-width="3" stroke-dasharray="60 30"/><path d="M560 228H1110L1080 272H600Z" fill="#1A2436"/><path d="M1040 170h50v58h-50z" fill="#1F2B40"/><path d="M1048 180h12v10h-12zM1068 180h12v10h-12z" fill="#F2C14E"/><rect x="600" y="204" width="60" height="24" rx="2" fill="#3A506B"/><rect x="662" y="204" width="60" height="24" rx="2" fill="#2F5D50"/><rect x="724" y="204" width="60" height="24" rx="2" fill="#6B4F3A"/><rect x="786" y="204" width="60" height="24" rx="2" fill="#3A506B"/><rect x="848" y="204" width="60" height="24" rx="2" fill="#2F5D50"/><rect x="910" y="204" width="60" height="24" rx="2" fill="#6B4F3A"/><rect x="972" y="204" width="60" height="24" rx="2" fill="#3A506B"/><rect x="600" y="178" width="60" height="24" rx="2" fill="#4A4E69"/><rect x="662" y="178" width="60" height="24" rx="2" fill="#355070"/><rect x="724" y="178" width="60" height="24" rx="2" fill="#5B3A4A"/><rect x="910" y="178" width="60" height="24" rx="2" fill="#5B3A4A"/><rect x="972" y="178" width="60" height="24" rx="2" fill="#4A4E69"/><rect x="662" y="152" width="60" height="24" rx="2" fill="#2F5D50"/><rect x="724" y="152" width="60" height="24" rx="2" fill="#6B4F3A"/><rect x="786" y="152" width="60" height="24" rx="2" fill="#3A506B"/><rect x="848" y="152" width="60" height="24" rx="2" fill="#2F5D50"/><rect x="910" y="152" width="60" height="24" rx="2" fill="#6B4F3A"/><path d="M1200 108L760 150L786 226Z" fill="#F2C14E" fill-opacity="0.16"/><path d="M1200 108L776 166L792 214Z" fill="#F2C14E" fill-opacity="0.16"/><rect x="786" y="178" width="122" height="24" rx="2" fill="#2496ED"/><rect x="785" y="177" width="124" height="26" rx="3" fill="none" stroke="#FFFFFF" stroke-width="2"/><path fill="#FFFFFF" d="M803 196.7q-1.5 0-2.4-1-.9-1.1-.9-2.8v-2.7q0-1.7.9-2.8.9-1 2.4-1 1.2 0 1.9.7.7.7.7 1.9l-.5-.5h.5v-2.4-2.7h2.2v13.1h-2.2v-1.9h-.5l.5-.5q0 1.2-.7 1.9-.7.7-1.9.7zm.8-2q.8 0 1.3-.5.5-.5.5-1.4v-2.5q0-.9-.5-1.4-.5-.5-1.3-.5-.9 0-1.4.5-.5.5-.5 1.4v2.5q0 .9.5 1.4.5.5 1.4.5zm10.8 2q-1.3 0-2.2-.5-.9-.5-1.4-1.4-.5-.8-.5-2v-2.5q0-1.2.5-2 .5-.9 1.4-1.4.9-.5 2.2-.5 1.3 0 2.2.5.9.5 1.4 1.4.5.8.5 2v2.5q0 1.2-.5 2-.5.9-1.4 1.4-.9.5-2.2.5zm0-2q.9 0 1.4-.5.5-.5.5-1.4v-2.5q0-.9-.5-1.4-.5-.5-1.4-.5-.9 0-1.4.5-.5.5-.5 1.4v2.5q0 .9.5 1.4.5.5 1.4.5zm10.9 2q-1.3 0-2.2-.5-1-.5-1.5-1.3-.5-.9-.5-2.1v-2.5q0-1.2.5-2.1.5-.8 1.5-1.3.9-.5 2.2-.5 1.8 0 2.9 1 1.2.9 1.2 2.6h-2.2q-.1-.8-.6-1.2-.5-.4-1.3-.4-1 0-1.5.5-.5.5-.5 1.4v2.5q0 .9.5 1.4.5.5 1.5.5.8 0 1.3-.4.5-.4.6-1.2h2.2q0 1.7-1.2 2.6-1.1 1-2.9 1zm6.7-.2v-13.1h2.3v7.1h1.6l2.4-3.9h2.5l-3 4.8 3 5.1h-2.5l-2.4-4.1h-1.6v4.1zm14.8.2q-1.2 0-2.2-.5-.9-.5-1.4-1.4-.5-.8-.5-2v-2.5q0-1.2.5-2 .5-.9 1.4-1.4 1-.5 2.2-.5 1.3 0 2.2.5.9.5 1.4 1.4.5.8.5 2v1.8h-6.1v.7q0 1 .5 1.6.5.5 1.5.5.8 0 1.3-.3.4-.2.5-.7h2.3q-.3 1.2-1.4 2-1.1.8-2.7.8zm2-5.9v-.5q0-1-.5-1.6-.5-.5-1.5-.5-1 0-1.5.5-.5.6-.5 1.6v.4h4.1zm5.1 5.7v-9.9h2.1v1.9h.6l-.7 1.1q0-1.6.7-2.4.8-.8 2.2-.8 1.6 0 2.5 1 .9 1 .9 2.7v.8h-2.4v-.6q0-1-.5-1.5-.5-.5-1.3-.5-.9 0-1.4.5-.5.6-.5 1.5v6.2zm14.5.2q-.8 0-1.2-.5-.5-.4-.5-1.2 0-.8.5-1.2.4-.5 1.2-.5.8 0 1.2.5.5.4.5 1.2 0 .8-.5 1.2-.4.5-1.2.5zm6.8-.2v-2h3.4v-5.9h-3v-2h5.2v7.9h3v2zm4.3-11.6q-.7 0-1.1-.3-.4-.4-.4-.9 0-.7.4-1 .4-.4 1.1-.4.7 0 1.1.4.4.3.4 1 0 .5-.4.9-.4.3-1.1.3zm10.5 11.8q-1.3 0-2.2-.5-.9-.5-1.4-1.4-.5-.8-.5-2v-2.5q0-1.2.5-2 .5-.9 1.4-1.4.9-.5 2.2-.5 1.3 0 2.2.5.9.5 1.4 1.4.5.8.5 2v2.5q0 1.2-.5 2-.5.9-1.4 1.4-.9.5-2.2.5zm0-2q.9 0 1.4-.5.5-.5.5-1.4v-2.5q0-.9-.5-1.4-.5-.5-1.4-.5-.9 0-1.4.5-.5.5-.5 1.4v2.5q0 .9.5 1.4.5.5 1.4.5z"/><path d="M1185 262L1197 120H1227L1239 262Z" fill="#E9E4DA"/><path d="M1189 214H1235L1237 238H1187ZM1193 166H1231L1233 188H1191Z" fill="#C8453B"/><rect x="1192" y="96" width="40" height="24" fill="#F2C14E"/><path d="M1186 96L1212 74L1238 96Z" fill="#C8453B"/><path d="M1160 262h104v10h-104z" fill="#1A2436"/><path fill="#fff" d="m58.8 120v-36.4h8.5v19h.4l7.8-9.9h9.7l-9.7 11.9 10.1 15.4h-9.8l-6.7-10.4-1.8 2.1v8.3zm43.4.5q-4.2 0-7.5-1.4-3.3-1.3-5.2-3.7-1.9-2.3-1.9-5.2 0-2.3 1.1-4.2 1.1-1.8 3-3.1 1.8-1.3 4.1-1.7v-.2q-3-.6-4.9-2.8-1.9-2.2-1.9-5.3 0-2.8 1.7-5 1.7-2.2 4.7-3.5 3-1.3 6.8-1.3 3.8 0 6.9 1.3 3 1.3 4.7 3.5 1.7 2.2 1.7 5 0 3.1-1.9 5.3-1.9 2.2-4.9 2.8v.2q2.3.4 4.1 1.7 1.9 1.3 3 3.1 1 1.9 1 4.2 0 2.9-1.9 5.2-1.8 2.4-5.1 3.7-3.3 1.4-7.6 1.4zm0-6.1q1.7 0 2.9-.7 1.3-.6 2-1.7 .7-1.1.7-2.5 0-1.5-.7-2.6-.8-1.1-2-1.7-1.2-.7-2.9-.7-1.6 0-2.8.7-1.3.6-2 1.7-.7 1.1-.7 2.6 0 1.4.7 2.5 .7 1.1 1.9 1.7 1.3.7 2.9.7zm0-16q1.4 0 2.5-.6 1.1-.6 1.7-1.6 .7-1 .7-2.3 0-1.3-.6-2.3-.7-1-1.8-1.5-1-.6-2.5-.6-1.4 0-2.5.6-1.1.5-1.7 1.5-.6 1-.6 2.3 0 1.3.6 2.3 .6 1 1.7 1.6 1.1.6 2.5.6zm30.9 22.1q-3.4 0-6.1-1-2.7-1-4.4-2.8-1.7-1.9-2.2-4.5l7.9-1.3q.6 1.8 1.8 2.7 1.2.9 3.4.9 1.7 0 2.8-.6 1-.6 1-1.6 0-1-.8-1.6-.8-.5-2.5-.9l-4.8-.9q-4.1-.8-6.1-2.8-2-1.9-2-5.1 0-2.7 1.5-4.6 1.5-2 4.2-3 2.7-1 6.3-1 3.4 0 6 .9 2.5.9 4 2.6 1.6 1.7 2.1 4l-7.6 1.2q-.3-1.3-1.5-2.1-1.1-.8-2.8-.8-1.6 0-2.6.6-1.1.7-1.1 1.7 0 .8.7 1.5 .6.6 2.4.9l5.2 1q4.1.8 6.1 2.6 1.9 1.8 1.9 4.8 0 2.8-1.6 4.9-1.7 2-4.5 3.2-2.9 1.1-6.7 1.1zm34.6-18.5v6.5h-16.8v-6.5zm16.1 18.4q-3.1 0-5.6-1.6-2.4-1.6-3.9-4.7-1.5-3.1-1.5-7.7 0-4.8 1.5-7.9 1.6-3.1 4.1-4.6 2.4-1.5 5.3-1.5 2.2 0 3.7.7 1.5.8 2.5 1.9 1 1.1 1.5 2.4h.2v-13.8h8.5v36.4h-8.4v-4.4h-.3q-.5 1.2-1.5 2.3-1 1.1-2.5 1.8-1.5.7-3.6.7zm2.9-6.6q1.6 0 2.7-1 1.2-.9 1.8-2.5 .6-1.7.6-3.9 0-2.3-.6-3.9-.6-1.7-1.8-2.6-1.1-.9-2.7-.9-1.7 0-2.8.9-1.1 1-1.7 2.6-.6 1.7-.6 3.9 0 2.2.6 3.8 .6 1.7 1.7 2.6 1.1 1 2.8 1zm31.7 6.7q-4.2 0-7.3-1.8-3.1-1.7-4.7-4.9-1.7-3.2-1.7-7.3 0-4.3 1.7-7.4 1.6-3.2 4.7-5 3.1-1.7 7.3-1.7 4.3 0 7.4 1.7 3.1 1.8 4.7 5 1.6 3.1 1.6 7.4 0 4.1-1.6 7.3-1.6 3.2-4.7 4.9-3.1 1.8-7.4 1.8zm0-6.5q1.7 0 2.8-1 1.1-.9 1.7-2.6 .6-1.7.6-4 0-2.3-.6-4-.6-1.7-1.7-2.6-1.1-.9-2.8-.9-1.6 0-2.7.9-1.2.9-1.7 2.6-.6 1.7-.6 4 0 2.3.6 4 .5 1.7 1.7 2.6 1.1 1 2.7 1zm31 6.5q-4.3 0-7.4-1.8-3-1.7-4.7-4.9-1.6-3.2-1.6-7.3 0-4.3 1.6-7.4 1.7-3.2 4.7-5 3.1-1.7 7.4-1.7 2.6 0 4.8.6 2.1.7 3.8 2 1.6 1.2 2.6 3 1 1.8 1.4 4.1l-7.9 1.3q-.2-1.1-.6-1.9-.4-.9-1-1.4-.6-.6-1.3-.9-.8-.3-1.7-.3-1.7 0-2.8.9-1.1.9-1.7 2.6-.6 1.7-.6 4 0 2.3.6 4.1 .6 1.7 1.7 2.6 1.1.9 2.8.9 .9 0 1.7-.3 .7-.3 1.3-.9 .6-.6 1-1.5 .4-.8.6-1.9l7.9 1.2q-.3 2.3-1.3 4.1-1.1 1.9-2.7 3.2-1.6 1.2-3.8 1.9-2.2.7-4.8.7zm17.1-.5v-36.4h8.5v19h.4l7.8-9.9h9.7l-9.8 11.9 10.2 15.4h-9.9l-6.6-10.4-1.8 2.1v8.3zm41.2.5q-4.3 0-7.4-1.7-3.1-1.7-4.7-4.8-1.7-3.2-1.7-7.5 0-4.2 1.7-7.4 1.6-3.2 4.7-5 3-1.7 7.1-1.7 2.9 0 5.3.9 2.4.9 4.2 2.6 1.7 1.8 2.7 4.4 1 2.6 1 6v2.1h-18.3q.1 1.9.7 3.1 .7 1.4 2 2.1 1.2.7 2.9.7 1.1 0 2-.3 1-.3 1.7-.9 .6-.7 1-1.6l7.6 1.3q-.7 2.3-2.4 4.1-1.7 1.7-4.2 2.7-2.6.9-5.9.9zm-5.3-17h10.1q-.2-1.2-.5-2.1-.6-1.4-1.8-2.1-1.1-.8-2.7-.8-1.7 0-2.8.8-1.2.7-1.8 2-.4 1-.5 2.2zm22.6 16.5v-27.3h8.3v5h.3q.7-2.7 2.4-4 1.7-1.3 4-1.3 .5 0 1.2 0 .6.1 1.2.3v7.4q-.6-.2-1.6-.4-1-.1-1.8-.1-1.6 0-2.8.7-1.2.7-2 2-.7 1.2-.7 2.8v14.9zm30.3-15.6v15.6h-8.5v-36.4h8.3v14.5q1-2.2 2.7-3.8 2.1-1.9 5.7-1.9 2.9 0 5 1.2 2.1 1.3 3.3 3.6 1.1 2.3 1.1 5.4v17.4h-8.5v-15.7q0-2.3-1.1-3.6-1.2-1.3-3.3-1.3-1.4 0-2.4.6-1.1.6-1.7 1.7-.6 1.1-.6 2.7zm32.7 15.9q-2.8 0-5-1.2-2.1-1.3-3.3-3.6-1.1-2.3-1.1-5.4v-17.4h8.5v15.7q0 2.3 1.2 3.6 1.1 1.3 3.2 1.3 1.4 0 2.5-.6 1-.6 1.6-1.7 .6-1.1.6-2.7v-15.6h8.5v27.3h-8l-.1-5.9q-1 2.6-2.9 4.3-2.1 1.9-5.7 1.9zm38.7.1q-2.1 0-3.6-.7-1.5-.7-2.5-1.8-1-1.1-1.6-2.3h-.3v4.4h-8.4v-36.4h8.5v13.8h.2q.5-1.3 1.5-2.4 1-1.1 2.6-1.9 1.5-.7 3.7-.7 2.8 0 5.3 1.5 2.5 1.5 4 4.6 1.5 3.1 1.5 7.9 0 4.6-1.4 7.7-1.5 3.1-4 4.7-2.5 1.6-5.5 1.6zm-2.9-6.6q1.6 0 2.8-1 1.1-.9 1.7-2.6 .6-1.6.6-3.8 0-2.2-.6-3.9-.6-1.6-1.7-2.6-1.1-.9-2.8-.9-1.6 0-2.8.9-1.1.9-1.7 2.6-.7 1.6-.7 3.9 0 2.2.7 3.9 .6 1.6 1.7 2.5 1.2 1 2.8 1zm35.8-11.8v6.5h-16.8v-6.5zm16.1 18.4q-3.1 0-5.6-1.6-2.5-1.6-3.9-4.7-1.5-3.1-1.5-7.7 0-4.8 1.5-7.9 1.6-3.1 4-4.6 2.5-1.5 5.4-1.5 2.2 0 3.7.7 1.5.8 2.5 1.9 1 1.1 1.5 2.4h.2v-13.8h8.5v36.4h-8.4v-4.4h-.3q-.5 1.2-1.5 2.3-1 1.1-2.5 1.8-1.5.7-3.6.7zm2.9-6.6q1.6 0 2.7-1 1.2-.9 1.8-2.5 .6-1.7.6-3.9 0-2.3-.6-3.9-.6-1.7-1.8-2.6-1.1-.9-2.7-.9-1.7 0-2.8.9-1.1 1-1.7 2.6-.6 1.7-.6 3.9 0 2.2.6 3.8 .6 1.7 1.7 2.6 1.1 1 2.8 1zm31.8 6.7q-4.3 0-7.4-1.7-3.1-1.7-4.8-4.8-1.6-3.2-1.6-7.5 0-4.2 1.6-7.4 1.7-3.2 4.7-5 3.1-1.7 7.2-1.7 2.8 0 5.2.9 2.4.9 4.2 2.6 1.8 1.8 2.7 4.4 1 2.6 1 6v2.1h-18.2q0 1.9.7 3.1 .7 1.4 1.9 2.1 1.3.7 2.9.7 1.2 0 2.1-.3 .9-.3 1.6-.9 .7-.7 1-1.6l7.6 1.3q-.7 2.3-2.3 4.1-1.7 1.7-4.3 2.7-2.5.9-5.8.9zm-5.4-17h10.1q-.1-1.2-.5-2.1-.6-1.4-1.7-2.1-1.1-.8-2.8-.8-1.6 0-2.8.8-1.1.7-1.7 2-.5 1-.6 2.2zm37.4-10.8v6.3h-4.9v12.7q0 1 .5 1.5 .5.6 1.7.6 .4 0 1.2-.1 .8-.1 1.1-.2l1.1 6.2q-1.4.4-2.7.5-1.4.2-2.6.2-4.3 0-6.6-2-2.2-2.1-2.2-6v-13.4h-3.6v-6.3h3.6v-6.5h8.5v6.5zm16.6 27.8q-4.3 0-7.4-1.7-3.1-1.7-4.7-4.8-1.7-3.2-1.7-7.5 0-4.2 1.7-7.4 1.6-3.2 4.7-5 3-1.7 7.1-1.7 2.9 0 5.3.9 2.4.9 4.1 2.6 1.8 1.8 2.8 4.4 .9 2.6.9 6v2.1h-18.2q.1 1.9.7 3.1 .7 1.4 1.9 2.1 1.3.7 2.9.7 1.2 0 2.1-.3 1-.3 1.6-.9 .7-.7 1.1-1.6l7.6 1.3q-.7 2.3-2.4 4.1-1.7 1.7-4.2 2.7-2.6.9-5.9.9zm-5.3-17h10.1q-.2-1.2-.5-2.1-.6-1.4-1.8-2.1-1.1-.8-2.7-.8-1.7 0-2.8.8-1.2.7-1.8 2-.4 1-.5 2.2zm35.3 17q-4.3 0-7.4-1.8-3-1.7-4.7-4.9-1.6-3.2-1.6-7.3 0-4.3 1.6-7.4 1.7-3.2 4.7-5 3.1-1.7 7.4-1.7 2.6 0 4.8.6 2.1.7 3.8 2 1.6 1.2 2.6 3 1 1.8 1.4 4.1l-7.9 1.3q-.2-1.1-.6-1.9-.4-.9-1-1.4-.6-.6-1.3-.9-.8-.3-1.7-.3-1.7 0-2.8.9-1.1.9-1.7 2.6-.6 1.7-.6 4 0 2.3.6 4.1 .6 1.7 1.7 2.6 1.1.9 2.8.9 .9 0 1.7-.3 .7-.3 1.3-.9 .6-.6 1-1.5 .4-.8.6-1.9l7.9 1.2q-.3 2.3-1.3 4.1-1.1 1.9-2.7 3.2-1.6 1.2-3.8 1.9-2.2.7-4.8.7zm31.8-27.8v6.3h-4.9v12.7q0 1 .5 1.5 .5.6 1.7.6 .4 0 1.2-.1 .8-.1 1.1-.2l1.1 6.2q-1.4.4-2.8.5-1.3.2-2.5.2-4.3 0-6.6-2-2.2-2.1-2.2-6v-13.4h-3.6v-6.3h3.6v-6.5h8.5v6.5zm16.5 27.8q-4.2 0-7.3-1.8-3.1-1.7-4.7-4.9-1.7-3.2-1.7-7.3 0-4.3 1.7-7.4 1.6-3.2 4.7-5 3.1-1.7 7.3-1.7 4.3 0 7.4 1.7 3.1 1.8 4.7 5 1.6 3.1 1.6 7.4 0 4.1-1.6 7.3-1.6 3.2-4.7 4.9-3.1 1.8-7.4 1.8zm0-6.5q1.7 0 2.8-1 1.1-.9 1.7-2.6 .6-1.7.6-4 0-2.3-.6-4-.6-1.7-1.7-2.6-1.1-.9-2.8-.9-1.6 0-2.7.9-1.1.9-1.7 2.6-.6 1.7-.6 4 0 2.3.6 4 .6 1.7 1.7 2.6 1.1 1 2.7 1zm18.3 6v-27.3h8.3v5h.3q.7-2.7 2.4-4 1.7-1.3 4-1.3 .6 0 1.2 0 .7.1 1.2.3v7.4q-.6-.2-1.6-.4-1-.1-1.8-.1-1.5 0-2.8.7-1.2.7-1.9 2-.7 1.2-.7 2.8v14.9z"/><path fill="#A9B8D0" d="m63.3 164l-4.7-17.5h2.8l2.5 10q.3 1 .5 2 .2 1 .4 2 0 .5.1.9 .1-.4.2-.9 .2-1 .4-2 .2-1 .5-2l2.6-10h2.9l2.6 10q.2 1 .4 2 .2 1 .4 2 .1.4.2.9l.2-.9q.2-1 .4-2 .2-1 .4-2l2.5-10h2.9l-4.8 17.5h-3.1l-2.7-10.3q-.4-1.3-.6-2.7-.2-.7-.3-1.4-.1.7-.2 1.3-.2 1.4-.6 2.8l-2.8 10.3zm23.1-7.8v7.8h-2.6v-17.5h2.6v6.7q.5-1.1 1.3-1.7 1.1-.8 2.6-.8 1.4 0 2.4.6 1 .6 1.5 1.7 .6 1.1.6 2.7v8.3h-2.6v-8q0-1.4-.7-2.2-.8-.8-2.1-.8-.8 0-1.5.4-.7.3-1.1 1.1-.4.7-.4 1.7zm11.8 7.8v-13.1h2.6v13.1zm1.3-15.1q-.6 0-1.1-.5-.5-.4-.5-1 0-.7.5-1.1 .5-.5 1.1-.5 .7 0 1.2.5 .5.4.5 1.1 0 .6-.5 1-.5.5-1.2.5zm10.3 15.4q-1.9 0-3.2-.9-1.4-.8-2.2-2.3-.7-1.6-.7-3.6 0-2 .7-3.5 .8-1.6 2.2-2.4 1.3-.9 3.2-.9 1 0 1.9.3 .9.3 1.6.8 .7.5 1.2 1.2 .5.7.8 1.6l-2.5.6q-.1-.5-.4-.9-.2-.4-.6-.8-.4-.3-.9-.4-.5-.2-1.1-.2-1.2 0-2 .6-.7.7-1.1 1.7-.4 1.1-.4 2.3 0 1.3.4 2.3 .4 1 1.1 1.7 .8.6 2 .6 .6 0 1.1-.2 .5-.1.9-.5 .4-.3.7-.7 .3-.5.4-1l2.4.6q-.2.9-.7 1.7-.5.7-1.2 1.2-.8.5-1.7.8-.9.3-1.9.3zm10.9-8.1v7.8h-2.6v-17.5h2.6v6.7q.5-1.1 1.3-1.7 1.1-.8 2.7-.8 1.3 0 2.3.6 1 .6 1.6 1.7 .5 1.1.5 2.7v8.3h-2.6v-8q0-1.4-.7-2.2-.7-.8-2-.8-.9 0-1.6.4-.7.3-1.1 1.1-.4.7-.4 1.7zm18.3 12.7v-18h2.5v2.1h.2q.2-.4.6-.9 .5-.6 1.2-1 .7-.4 2-.4 1.6 0 2.8.8 1.2.8 1.9 2.3 .8 1.6.8 3.7 0 2.1-.8 3.6-.7 1.5-1.9 2.3-1.2.9-2.8.9-1.2 0-2-.4-.7-.5-1.1-1-.5-.5-.7-1h-.1v7zm5.9-6.8q1.1 0 1.9-.6 .8-.7 1.1-1.7 .4-1 .4-2.3 0-1.3-.4-2.4-.3-1-1.1-1.6-.8-.6-1.9-.6-1.1 0-1.9.6-.7.6-1.1 1.6-.4 1-.4 2.4 0 1.3.4 2.4 .4 1 1.2 1.6 .7.6 1.8.6zm14.4 2.2q-1.8 0-3.2-.9-1.4-.8-2.1-2.3-.8-1.6-.8-3.6 0-2 .8-3.5 .7-1.6 2.1-2.4 1.4-.9 3.2-.9 1.9 0 3.2.9 1.4.8 2.2 2.4 .7 1.5.7 3.5 0 2-.7 3.6-.8 1.5-2.2 2.3-1.3.9-3.2.9zm0-2.2q1.2 0 2-.6 .8-.7 1.2-1.7 .3-1 .3-2.3 0-1.2-.3-2.3-.4-1-1.2-1.7-.8-.6-2-.6-1.2 0-1.9.6-.8.7-1.2 1.7-.4 1.1-.4 2.3 0 1.3.4 2.3 .4 1 1.2 1.7 .7.6 1.9.6zm13.9 2.2q-1.6 0-2.9-.9-1.2-.8-1.9-2.3-.7-1.5-.7-3.6 0-2.1.7-3.7 .7-1.5 2-2.3 1.2-.8 2.8-.8 1.2 0 1.9.4 .8.4 1.2 1 .4.5.7.9h.1v-6.5h2.6v17.5h-2.5v-2.1h-.2q-.3.5-.7 1-.4.5-1.2 1-.7.4-1.9.4zm.5-2.2q1.1 0 1.9-.6 .8-.6 1.2-1.6 .3-1.1.3-2.4 0-1.4-.3-2.4-.4-1-1.2-1.6-.7-.6-1.9-.6-1.1 0-1.8.6-.8.6-1.2 1.6-.4 1.1-.4 2.4 0 1.3.4 2.3 .4 1 1.2 1.7 .7.6 1.8.6zm14.1 2.2q-1.4 0-2.5-.4-1.1-.5-1.8-1.3-.7-.8-.9-1.9l2.4-.5q.3 1 1 1.5 .7.5 1.9.5 1.2 0 1.9-.5 .8-.6.8-1.3 0-.6-.5-1-.4-.4-1.4-.6l-2.2-.5q-1.8-.5-2.7-1.4-.9-.9-.9-2.3 0-1.1.7-2 .6-.9 1.8-1.4 1.1-.5 2.6-.5 1.4 0 2.4.4 1 .5 1.7 1.2 .6.7.9 1.7l-2.3.5q-.3-.7-.9-1.2-.6-.5-1.8-.5-1 0-1.8.5-.7.4-.7 1.2 0 .6.5 1 .5.4 1.6.7l2.1.5q1.8.4 2.7 1.2 .8.9.8 2.3 0 1.2-.6 2.1-.7.9-1.9 1.4-1.3.6-2.9.6zm19.4 0q-1.4 0-2.6-.4-1.1-.5-1.8-1.3-.7-.8-.9-1.9l2.4-.5q.3 1 1 1.5 .8.5 1.9.5 1.2 0 2-.5 .7-.6.7-1.3 0-.6-.4-1-.5-.4-1.4-.6l-2.2-.5q-1.9-.5-2.8-1.4-.8-.9-.8-2.3 0-1.1.6-2 .7-.9 1.8-1.4 1.1-.5 2.6-.5 1.5 0 2.5.4 1 .5 1.6 1.2 .6.7.9 1.7l-2.3.5q-.3-.7-.9-1.2-.6-.5-1.7-.5-1.1 0-1.8.5-.7.4-.7 1.2 0 .6.4 1 .5.4 1.6.7l2.1.5q1.8.4 2.7 1.2 .9.9.9 2.3 0 1.2-.7 2.1-.7.9-1.9 1.4-1.2.6-2.8.6zm13.8-13.4v2.1h-2.6v7.5q0 .7.3 1.1 .4.4 1.1.4 .2 0 .5-.1 .4 0 .6-.1l.5 2.1q-.5.1-.9.2-.5.1-.9.1-1.8 0-2.8-.9-1-1-1-2.6v-7.7h-1.9v-2.1h1.9v-3.1h2.6v3.1zm2.6 13.1v-13.1h2.5v13.1zm1.3-15.1q-.7 0-1.2-.5-.5-.4-.5-1 0-.7.5-1.1 .5-.5 1.2-.5 .6 0 1.1.5 .5.4.5 1.1 0 .6-.5 1-.5.5-1.1.5zm7.3-2.4v17.5h-2.6v-17.5zm6 0v17.5h-2.5v-17.5zm9.9 22.4v-18h2.5v2.1h.2q.3-.4.7-.9 .4-.6 1.1-1 .8-.4 2-.4 1.6 0 2.8.8 1.2.8 2 2.3 .7 1.6.7 3.7 0 2.1-.7 3.6-.7 1.5-2 2.3-1.2.9-2.8.9-1.2 0-1.9-.4-.8-.5-1.2-1-.4-.5-.7-1h-.1v7zm5.9-6.8q1.2 0 1.9-.6 .8-.7 1.2-1.7 .3-1 .3-2.3 0-1.3-.3-2.4-.4-1-1.2-1.6-.7-.6-1.9-.6-1.1 0-1.8.6-.8.6-1.2 1.6-.4 1-.4 2.4 0 1.3.4 2.4 .4 1 1.2 1.6 .7.6 1.8.6zm13.4 2.1q-1.3 0-2.3-.6-1-.6-1.6-1.7-.6-1.1-.6-2.7v-8.3h2.6v8q0 1.4.8 2.2 .7.8 2 .8 .9 0 1.5-.4 .7-.3 1.1-1.1 .4-.7.4-1.7v-7.8h2.6v13.1h-2.5v-2.6q-.5 1.3-1.4 2-1.1.8-2.6.8zm12.6-17.7v17.5h-2.6v-17.5zm6 0v17.5h-2.6v-17.5zm16.4 4.4v2.1h-3v11h-2.5v-11h-2.5v-2.1h2.5v-1.5q0-1.2.5-2 .5-.9 1.4-1.3 .9-.4 2-.4 .7 0 1.3.1 .6.2.8.3l-.6 2.1q-.2-.1-.5-.2-.2 0-.6 0-1 0-1.4.4-.4.5-.4 1.4v1.1zm2.6 13.1v-13.1h2.5v2.1h.1q.4-1.1 1.3-1.7 .9-.6 2-.6 .3 0 .6 0 .3 0 .5.1v2.4q-.1 0-.5-.1-.4 0-.8 0-.9 0-1.6.4-.8.4-1.2 1-.3.7-.3 1.5v8zm14.3.3q-1.8 0-3.2-.9-1.4-.8-2.2-2.3-.7-1.6-.7-3.6 0-2 .7-3.5 .8-1.6 2.2-2.4 1.4-.9 3.2-.9 1.9 0 3.2.9 1.4.8 2.2 2.4 .7 1.5.7 3.5 0 2-.7 3.6-.8 1.5-2.2 2.3-1.3.9-3.2.9zm0-2.2q1.2 0 2-.6 .8-.7 1.1-1.7 .4-1 .4-2.3 0-1.2-.4-2.3-.3-1-1.1-1.7-.8-.6-2-.6-1.2 0-2 .6-.7.7-1.1 1.7-.4 1.1-.4 2.3 0 1.3.4 2.3 .4 1 1.1 1.7 .8.6 2 .6zm9 1.9v-13.1h2.4l.1 2.4q.3-.7.7-1.2 .6-.7 1.4-1.1 .7-.3 1.6-.3 1.4 0 2.3.9 .7.7 1 1.8 .3-.7.7-1.2 .7-.8 1.6-1.1 .9-.4 1.9-.4 1.2 0 2.1.5 .9.5 1.5 1.5 .5 1 .5 2.5v8.8h-2.5v-8.6q0-1.3-.8-1.9-.7-.6-1.7-.6-.8 0-1.4.4-.6.3-.9.9-.3.6-.3 1.4v8.4h-2.6v-8.7q0-1.1-.6-1.7-.7-.7-1.7-.7-.8 0-1.4.4-.6.3-1 1-.3.6-.3 1.6v8.1zm33.6 0h-5.7v-17.5h5.9q2.5 0 4.4 1.1 1.8 1 2.8 3 1 1.9 1 4.6 0 2.8-1 4.7-1 2-2.9 3-1.9 1.1-4.5 1.1zm-3-2.3h2.8q2 0 3.3-.8 1.3-.7 2-2.2 .7-1.4.7-3.5 0-2-.7-3.4-.6-1.4-1.9-2.2-1.3-.7-3.2-.7h-3zm19.9 2.6q-1.8 0-3.2-.9-1.4-.8-2.1-2.3-.8-1.6-.8-3.6 0-2 .8-3.5 .7-1.6 2.1-2.4 1.4-.9 3.2-.9 1.9 0 3.3.9 1.3.8 2.1 2.4 .8 1.5.8 3.5 0 2-.8 3.6-.8 1.5-2.1 2.3-1.4.9-3.3.9zm0-2.2q1.2 0 2-.6 .8-.7 1.2-1.7 .4-1 .4-2.3 0-1.2-.4-2.3-.4-1-1.2-1.7-.8-.6-2-.6-1.1 0-1.9.6-.8.7-1.2 1.7-.4 1.1-.4 2.3 0 1.3.4 2.3 .4 1 1.2 1.7 .8.6 1.9.6zm14.5 2.2q-1.8 0-3.2-.9-1.4-.8-2.1-2.3-.8-1.6-.8-3.6 0-2 .8-3.5 .7-1.6 2.1-2.4 1.4-.9 3.2-.9 1.1 0 1.9.3 .9.3 1.7.8 .7.5 1.2 1.2 .5.7.7 1.6l-2.4.6q-.2-.5-.4-.9-.3-.4-.7-.8-.4-.3-.9-.4-.5-.2-1.1-.2-1.1 0-1.9.6-.8.7-1.2 1.7-.4 1.1-.4 2.3 0 1.3.4 2.3 .4 1 1.2 1.7 .8.6 1.9.6 .7 0 1.2-.2 .5-.1.9-.5 .4-.3.6-.7 .3-.5.4-1l2.5.6q-.3.9-.8 1.7-.5.7-1.2 1.2-.7.5-1.6.8-.9.3-2 .3zm8.4-.3v-17.5h2.6v9.9h.2l5.2-5.5h3.1l-5.3 5.6 5.6 7.5h-3.2l-4.4-5.9-1.2 1.3v4.6zm18.5.3q-1.9 0-3.3-.9-1.4-.8-2.2-2.3-.8-1.5-.8-3.6 0-2 .8-3.5 .7-1.5 2.1-2.4 1.4-.9 3.2-.9 1.1 0 2.1.4 1.1.4 1.9 1.2 .9.7 1.3 2 .5 1.2.5 3v.9h-9.3q.1 1.2.5 2 .5 1 1.3 1.5 .8.4 1.9.4 .8 0 1.3-.2 .6-.2 1.1-.6 .4-.4.6-1l2.4.6q-.3 1-1 1.7-.8.8-1.9 1.2-1.1.5-2.5.5zm-3.7-8h6.8q-.1-.8-.4-1.5-.4-.9-1.1-1.4-.7-.5-1.8-.5-1.1 0-1.9.5-.8.5-1.2 1.4-.3.7-.4 1.5zm12.2 7.7v-13.1h2.4v2.1h.2q.4-1.1 1.3-1.7 .9-.6 2-.6 .3 0 .6 0 .3 0 .5.1v2.4q-.1 0-.5-.1-.4 0-.9 0-.8 0-1.6.4-.7.4-1.1 1-.4.7-.4 1.5v8zm9.8 0v-17.5h2.7v7.4h8.6v-7.4h2.7v17.5h-2.7v-7.8h-8.6v7.8zm22.1.2q-1.3 0-2.3-.6-1-.6-1.6-1.7-.5-1.1-.5-2.7v-8.3h2.6v8q0 1.4.7 2.2 .7.8 2 .8 .9 0 1.6-.4 .7-.3 1.1-1.1 .4-.7.4-1.7v-7.8h2.5v13.1h-2.4v-2.6q-.6 1.3-1.5 2-1.1.8-2.6.8zm16.5.1q-1.2 0-1.9-.4-.8-.5-1.2-1-.4-.5-.7-1h-.2v2.1h-2.5v-17.5h2.6v6.5h.1q.3-.4.7-.9 .4-.6 1.1-1 .8-.4 2-.4 1.6 0 2.8.8 1.3.8 2 2.3 .7 1.6.7 3.7 0 2.1-.7 3.6-.7 1.5-1.9 2.3-1.3.9-2.9.9zm-.6-2.2q1.2 0 1.9-.6 .8-.7 1.2-1.7 .4-1 .4-2.3 0-1.3-.4-2.4-.4-1-1.2-1.6-.7-.6-1.9-.6-1.1 0-1.8.6-.8.6-1.2 1.6-.4 1-.4 2.4 0 1.3.4 2.4 .4 1 1.2 1.6 .8.6 1.8.6zm11.7-3.4v-.2q0-1.5.3-2.4 .3-.9.9-1.4 .5-.5 1.3-1 .8-.4 1.3-1.1 .6-.7.6-1.7 0-.7-.4-1.3-.3-.5-.9-.8-.6-.3-1.3-.3-.7 0-1.3.3-.6.2-1 .8-.4.6-.4 1.5h-2.6q0-1.6.7-2.7 .8-1 1.9-1.6 1.2-.5 2.7-.5 1.5 0 2.7.6 1.2.6 1.8 1.6 .7 1.1.7 2.4 0 1.5-.6 2.5-.7 1-1.9 1.7-.7.4-1.1.9-.5.4-.7 1-.2.5-.2 1.5v.2zm1.3 5.5q-.8 0-1.3-.5-.5-.5-.5-1.2 0-.8.5-1.3 .5-.4 1.3-.4 .7 0 1.2.4 .5.5.5 1.3 0 .7-.5 1.2-.5.5-1.2.5z"/></g></svg>
